<!DOCTYPE svg PUBLIC "-//W3C//DTD SVG 1.1//EN" "http://www.w3.org/Graphics/SVG/1.1/DTD/svg11.dtd">
<!-- Uploaded to: SVG Repo, www.svgrepo.com, Transformed by: SVG Repo Mixer Tools -->
<svg fill="#ffffff" version="1.1" id="Capa_1" xmlns="http://www.w3.org/2000/svg" xmlns:xlink="http://www.w3.org/1999/xlink" width="800px" height="800px" viewBox="0 0 74.986 74.986" xml:space="preserve">
<g id="SVGRepo_bgCarrier" stroke-width="0"/>
<g id="SVGRepo_tracerCarrier" stroke-linecap="round" stroke-linejoin="round"/>
<g id="SVGRepo_iconCarrier"> <g> <path d="M63.822,3.936c-0.678-0.675-1.697-0.757-2.454-0.276l-7.188,7.189l-7.736,7.735v-0.006c0-0.113-0.015-0.221-0.029-0.329 c1.51-1.919,2.424-4.326,2.424-6.953C48.838,5.067,43.771,0,37.542,0c-6.229,0-11.296,5.067-11.296,11.296 c0,2.623,0.911,5.025,2.417,6.945c-0.008,0.08-0.023,0.159-0.023,0.241v0.164v0.034l-7.834-7.832l-7.187-7.189 c-0.757-0.48-1.777-0.398-2.455,0.276c-0.78,0.785-0.799,2.035-0.038,2.795l0.677,0.675l2.407,2.409l10.037,10.038l4.393,4.393 v20.596v3.949v1.599v18.895c0,3.253,1.713,5.703,3.984,5.703h9.836c2.271,0,3.984-2.45,3.984-5.703V51.832v-3.041v-3.949V24.148 l4.295-4.295L60.775,9.815l2.409-2.409l0.677-0.675C64.62,5.971,64.603,4.721,63.822,3.936z M42.496,69.283 c0,0.883-0.227,1.49-0.383,1.757h-2.599V49.004c0-1.089-0.883-1.975-1.974-1.975c-1.09,0-1.974,0.886-1.974,1.975v22.035h-2.599 c-0.156-0.268-0.383-0.874-0.383-1.758V50.839c0.028-0.146,0.043-0.297,0.043-0.45V22.592h9.823v29.239 c0,0.16,0.016,0.317,0.044,0.469L42.496,69.283L42.496,69.283z M37.541,18.647c-4.054,0-7.349-3.297-7.349-7.351 c0-4.053,3.295-7.349,7.349-7.349c4.053,0,7.349,3.296,7.349,7.349C44.89,15.35,41.594,18.647,37.541,18.647z"/> </g> </g>
</svg>